<svg width="128" height="38" viewBox="0 0 128 38" fill="none" xmlns="http://www.w3.org/2000/svg">
<path d="M69.2984 25.2306V7.01994H64.2665V25.2306H69.2984Z" fill="white"/>
<path d="M69.2984 4.07247V0H64.2665V4.07247H69.2984Z" fill="white"/>
<path d="M29.0083 15.7607H17.1552V11.159H34.3102V14.3711C34.3102 22.5495 27.6575 25.6614 17.1552 25.6614C6.65264 25.6614 0 22.5495 0 14.3711V12.6808C0 4.50239 6.65264 1.39052 17.1552 1.39052C25.8002 1.39052 31.8449 3.50914 33.7024 8.80799H27.6912C25.5637 6.55495 21.3764 5.99227 17.1552 5.99227C11.1104 5.99227 5.16685 7.15182 5.16685 12.6808V14.3711C5.16685 19.9 11.1104 21.0596 17.1552 21.0596C22.6596 21.0596 28.0627 20.0982 29.0083 15.7607Z" fill="white"/>
<path d="M54.9213 21.2237C53.1652 23.4762 49.9233 25.6615 46.276 25.6615C40.8728 25.6615 37.6985 22.2512 37.6985 16.8869V7.01972H42.7303V15.893C42.7303 19.8663 44.0471 21.0913 47.8633 21.0913C50.3622 21.0913 53.0977 20.066 54.9213 18.9398V7.01972H59.9529V25.2307H54.9213V21.2237Z" fill="white"/>
<path fill-rule="evenodd" clip-rule="evenodd" d="M92.1682 21.3251C90.2771 23.5751 86.8327 25.6628 82.3411 25.6628C76.7017 25.6628 72.7172 22.1186 72.7172 16.6215V15.5628C72.7172 10.0657 76.7017 6.52376 82.3411 6.52376C86.8327 6.52376 90.2771 8.60917 92.1682 10.8615V1.82847e-05H97.2001V25.2307H92.1682V21.3251ZM84.3336 21.0919C87.1704 21.0919 90.3445 20.0652 92.1682 19.0065V13.1778C90.3445 12.1191 87.1704 11.0924 84.3336 11.0924C80.4505 11.0924 77.4783 12.4507 77.4783 15.5628V16.6215C77.4783 19.7359 80.4505 21.0919 84.3336 21.0919Z" fill="white"/>
<path fill-rule="evenodd" clip-rule="evenodd" d="M123.515 17.3514V15.7271C123.515 9.63434 119.193 6.52278 112.27 6.52278C105.077 6.52278 100.315 9.80058 100.315 15.8934V16.6213C100.315 22.7141 104.469 25.2303 112.507 25.2303H117.977V20.9258H112.338C108.083 20.9258 105.516 19.9328 105.145 17.3514H123.515ZM117.977 13.9074H105.449C106.293 11.9191 108.488 10.6947 112.169 10.6947C115.478 10.6947 117.471 11.7214 117.977 13.9074Z" fill="white"/>
<path fill-rule="evenodd" clip-rule="evenodd" d="M124.885 24.2598V21.8985H125.852C126.391 21.8985 126.661 22.0928 126.661 22.4834C126.661 22.7964 126.489 23.0209 126.147 23.1568L126.856 24.2598H126.227L125.685 23.295H125.378V24.2598H124.885ZM125.378 22.9712H125.507C125.922 22.9712 126.13 22.8266 126.13 22.5395C126.13 22.328 125.944 22.2244 125.571 22.2244H125.378V22.9712Z" fill="white"/>
<path fill-rule="evenodd" clip-rule="evenodd" d="M125.746 25.2699C125.143 25.2699 124.625 25.0541 124.192 24.6246C123.759 24.1929 123.543 23.6813 123.543 23.0835C123.543 22.4813 123.761 21.9654 124.197 21.538C124.633 21.1128 125.157 20.8992 125.771 20.8992C126.385 20.8992 126.91 21.1128 127.346 21.538C127.782 21.9654 128 22.4791 128 23.0791C128 23.69 127.781 24.208 127.344 24.6332C126.908 25.0563 126.375 25.2699 125.746 25.2699ZM125.746 24.9073C126.352 24.9073 126.834 24.6893 127.191 24.2512C127.484 23.895 127.63 23.5043 127.63 23.0813C127.63 22.6626 127.484 22.2741 127.191 21.9179C126.834 21.4798 126.36 21.2618 125.771 21.2618C125.182 21.2618 124.709 21.4798 124.352 21.9179C124.059 22.2741 123.913 22.6626 123.913 23.0835C123.913 23.5799 124.094 24.0073 124.456 24.3677C124.819 24.726 125.248 24.9073 125.746 24.9073Z" fill="white"/>
<path d="M37.7201 32.2995V37.8323H39.3302V32.2995H37.7201Z" fill="white"/>
<path d="M37.6984 30.2023V31.5577H39.3518V30.2023H37.6984Z" fill="white"/>
<path d="M45.5336 37.8307V34.546C45.5336 34.1365 45.4343 33.8398 45.2363 33.6559C45.0381 33.472 44.7228 33.3801 44.2906 33.3801C44.06 33.3801 43.8316 33.424 43.6042 33.5076C43.3772 33.5932 43.181 33.7123 43.0154 33.869C42.713 34.1511 42.5615 34.4687 42.5615 34.8219V37.8307H40.9513V32.2998H42.5293V33.19C43.1343 32.4837 43.9125 32.1306 44.8634 32.1306C45.5984 32.1306 46.162 32.3124 46.5548 32.6759C46.9473 33.0395 47.1436 33.5619 47.1436 34.2389V37.8307H45.5336Z" fill="white"/>
<path d="M47.8786 32.3L50.4506 37.8303H52.1903L54.7623 32.3H53.0549L51.3473 36.3683L49.651 32.3H47.8786Z" fill="white"/>
<path fill-rule="evenodd" clip-rule="evenodd" d="M56.697 35.4466C56.704 35.7224 56.7814 35.9669 56.9291 36.1779C57.0767 36.3911 57.2819 36.5561 57.5451 36.6773C57.8081 36.7964 58.1128 36.857 58.4583 36.857C59.3013 36.857 59.8238 36.6063 60.0256 36.1048H61.5278C61.3763 36.7463 61.0428 37.2248 60.5277 37.534C60.0126 37.8454 59.3047 38 58.4046 38C57.3815 38 56.587 37.7493 56.0214 37.2478C55.4557 36.7463 55.1733 36.0442 55.1733 35.1395C55.1733 34.5607 55.3044 34.0425 55.5675 33.587C55.8305 33.1314 56.2085 32.7762 56.7021 32.5171C57.1956 32.2601 57.774 32.1306 58.4367 32.1306C59.4454 32.1306 60.2255 32.3792 60.7766 32.8786C61.3275 33.3759 61.603 34.0738 61.603 34.9702V35.4466H56.697ZM60.1011 34.4833C60.0864 34.0947 59.9319 33.7917 59.6365 33.5765C59.3409 33.3613 58.9303 33.2547 58.4046 33.2547C57.9577 33.2547 57.5777 33.3696 57.2645 33.6037C56.951 33.8356 56.776 34.1302 56.7402 34.4833H60.1011Z" fill="white"/>
<path d="M66.5634 33.3864C66.7938 33.495 66.9489 33.6664 67.0282 33.9004L68.5519 33.7311C68.4008 33.1795 68.0875 32.7762 67.6117 32.5171C67.1362 32.2601 66.4624 32.1306 65.5908 32.1306C64.6902 32.1306 63.9898 32.2789 63.4888 32.5756C62.9882 32.8723 62.7378 33.2902 62.7378 33.8252C62.7378 34.3496 62.92 34.7425 63.2835 35.0078C63.6475 35.2732 64.2796 35.4717 65.1802 35.6054L65.8719 35.7015C66.3401 35.7642 66.6663 35.8394 66.85 35.9251C67.0337 36.0087 67.1256 36.1299 67.1256 36.2845C67.1256 36.4893 67.0137 36.6376 66.7904 36.7296C66.5668 36.8215 66.2069 36.8675 65.7099 36.8675C64.7514 36.8675 64.2112 36.6021 64.0886 36.0714H62.5434C62.6297 36.7233 62.936 37.206 63.4621 37.5236C63.9878 37.8412 64.7444 38 65.7315 38C66.7038 38 67.4388 37.8516 67.936 37.5508C68.433 37.2499 68.6814 36.8069 68.6814 36.2197C68.6814 35.8812 68.6077 35.6012 68.46 35.3777C68.3126 35.1562 68.0619 34.9723 67.709 34.8281C67.3561 34.6818 66.8515 34.5648 66.1962 34.4729L65.4504 34.3663C64.982 34.2953 64.6651 34.2222 64.4995 34.1449C64.3337 34.0655 64.2508 33.9505 64.2508 33.7938C64.2508 33.4135 64.6973 33.2213 65.5908 33.2213C66.0087 33.2213 66.3328 33.2777 66.5634 33.3864Z" fill="white"/>
<path d="M74.074 37.705C73.57 37.8602 73.0404 37.9378 72.4855 37.9378C71.7725 37.9378 71.2535 37.7805 70.9296 37.4659C70.6053 37.1513 70.4432 36.6521 70.4432 35.9662V33.4764H69.3518V32.2997H70.4432V30.8273H72.0533V32.2997H73.9014V33.4764H72.0533V35.9137C72.0533 36.1885 72.1216 36.392 72.2587 36.522C72.3956 36.6542 72.6115 36.7192 72.9071 36.7192C73.2171 36.7192 73.5339 36.6688 73.8582 36.5703L74.074 37.705Z" fill="white"/>
<path d="M75.1116 32.2995V37.8323H76.7218V32.2995H75.1116Z" fill="white"/>
<path d="M75.09 30.2023V31.5577H76.7434V30.2023H75.09Z" fill="white"/>
<path d="M86.7075 37.8307V34.5147C86.7075 34.1114 86.6227 33.8231 86.4535 33.6455C86.2839 33.4699 86.0156 33.3801 85.6482 33.3801C85.2376 33.3801 84.8666 33.5326 84.5352 33.8356C84.4126 33.9505 84.3153 34.0822 84.2434 34.2347C84.1712 34.3852 84.1354 34.544 84.1354 34.7049V37.8307H82.525V34.5147C82.525 34.1198 82.4402 33.8314 82.271 33.6517C82.1018 33.472 81.8337 33.3801 81.4661 33.3801C81.0339 33.3801 80.6625 33.5431 80.353 33.869C80.086 34.1449 79.953 34.4625 79.953 34.8219V37.8307H78.3428V32.2998H79.9209V33.19C80.4896 32.4837 81.1961 32.1306 82.0389 32.1306C82.5069 32.1306 82.9034 32.2246 83.2274 32.4106C83.5517 32.5986 83.7895 32.8682 83.9408 33.2213C84.2434 32.8556 84.5819 32.5819 84.9569 32.4001C85.3309 32.2204 85.7563 32.1306 86.2321 32.1306C86.9019 32.1306 87.417 32.3124 87.7773 32.6759C88.1375 33.0395 88.3175 33.5619 88.3175 34.2389V37.8307H86.7075Z" fill="white"/>
<path fill-rule="evenodd" clip-rule="evenodd" d="M91.3596 36.1779C91.2119 35.9669 91.1345 35.7224 91.1271 35.4466H96.0336V34.9702C96.0336 34.0738 95.758 33.3759 95.2067 32.8786C94.6558 32.3792 93.8759 32.1306 92.8673 32.1306C92.2045 32.1306 91.6262 32.2601 91.1326 32.5171C90.6391 32.7762 90.261 33.1314 89.9981 33.587C89.7349 34.0425 89.6034 34.5607 89.6034 35.1395C89.6034 36.0442 89.886 36.7463 90.4518 37.2478C91.0175 37.7493 91.8118 38 92.8349 38C93.7352 38 94.4432 37.8454 94.9582 37.534C95.4733 37.2248 95.8066 36.7463 95.9579 36.1048H94.4557C94.2539 36.6063 93.7316 36.857 92.8888 36.857C92.5429 36.857 92.2386 36.7964 91.9756 36.6773C91.7125 36.5561 91.5073 36.3911 91.3596 36.1779ZM94.0666 33.5765C94.3622 33.7917 94.5169 34.0947 94.5314 34.4833H91.1708C91.2063 34.1302 91.3811 33.8356 91.6948 33.6037C92.008 33.3696 92.3882 33.2547 92.8349 33.2547C93.3606 33.2547 93.7713 33.3613 94.0666 33.5765Z" fill="white"/>
<path d="M101.956 37.8307V34.546C101.956 34.1365 101.856 33.8398 101.659 33.6559C101.46 33.472 101.145 33.3801 100.713 33.3801C100.482 33.3801 100.254 33.424 100.027 33.5076C99.7999 33.5932 99.6032 33.7123 99.4375 33.869C99.1353 34.1511 98.9838 34.4687 98.9838 34.8219V37.8307H97.3736V32.2998H98.9516V33.19C99.5566 32.4837 100.335 32.1306 101.285 32.1306C102.02 32.1306 102.584 32.3124 102.977 32.6759C103.37 33.0395 103.566 33.5619 103.566 34.2389V37.8307H101.956Z" fill="white"/>
<path d="M107.575 37.9378C108.13 37.9378 108.66 37.8602 109.164 37.705L108.948 36.5703C108.623 36.6688 108.307 36.7192 107.997 36.7192C107.701 36.7192 107.485 36.6542 107.348 36.522C107.211 36.392 107.143 36.1885 107.143 35.9137V33.4764H108.991V32.2997H107.143V30.8273H105.533V32.2997H104.441V33.4764H105.533V35.9662C105.533 36.6521 105.695 37.1513 106.019 37.4659C106.343 37.7805 106.862 37.9378 107.575 37.9378Z" fill="white"/>
<path fill-rule="evenodd" clip-rule="evenodd" d="M116.437 35.0454C116.437 35.9481 116.127 36.6669 115.507 37.2018C114.888 37.7346 114.052 38 113 38C111.948 38 111.127 37.743 110.536 37.2269C109.946 36.7108 109.65 35.9982 109.65 35.0872C109.65 34.5001 109.787 33.984 110.061 33.5389C110.334 33.0938 110.729 32.7491 111.244 32.5004C111.759 32.2539 112.37 32.1306 113.076 32.1306C114.128 32.1306 114.951 32.3876 115.546 32.8995C116.14 33.4114 116.437 34.126 116.437 35.0454ZM114.772 35.0663C114.772 34.5147 114.623 34.0884 114.324 33.7896C114.025 33.4888 113.598 33.3383 113.043 33.3383C112.496 33.3383 112.071 33.4908 111.768 33.7938C111.466 34.0989 111.314 34.521 111.314 35.0663C111.314 35.6159 111.464 36.0421 111.763 36.343C112.062 36.6439 112.485 36.7923 113.033 36.7923C113.58 36.7923 114.007 36.6439 114.313 36.343C114.619 36.0421 114.772 35.6159 114.772 35.0663Z" fill="white"/>
<path d="M121.397 33.3864C121.628 33.495 121.783 33.6664 121.862 33.9004L123.386 33.7311C123.235 33.1795 122.921 32.7762 122.445 32.5171C121.97 32.2601 121.296 32.1306 120.425 32.1306C119.524 32.1306 118.824 32.2789 118.323 32.5756C117.822 32.8723 117.571 33.2902 117.571 33.8252C117.571 34.3496 117.754 34.7425 118.117 35.0078C118.481 35.2732 119.113 35.4717 120.014 35.6054L120.706 35.7015C121.174 35.7642 121.5 35.8394 121.684 35.9251C121.867 36.0087 121.959 36.1299 121.959 36.2845C121.959 36.4893 121.848 36.6376 121.624 36.7296C121.401 36.8215 121.041 36.8675 120.544 36.8675C119.585 36.8675 119.045 36.6021 118.922 36.0714H117.377C117.464 36.7233 117.77 37.206 118.296 37.5236C118.821 37.8412 119.578 38 120.565 38C121.538 38 122.273 37.8516 122.77 37.5508C123.267 37.2499 123.515 36.8069 123.515 36.2197C123.515 35.8812 123.441 35.6012 123.294 35.3777C123.146 35.1562 122.896 34.9723 122.543 34.8281C122.19 34.6818 121.685 34.5648 121.03 34.4729L120.284 34.3663C119.816 34.2953 119.499 34.2222 119.333 34.1449C119.168 34.0655 119.085 33.9505 119.085 33.7938C119.085 33.4135 119.531 33.2213 120.425 33.2213C120.842 33.2213 121.167 33.2777 121.397 33.3864Z" fill="white"/>
</svg>
